<svg width="43" height="48" viewBox="0 0 43 48" fill="none" xmlns="http://www.w3.org/2000/svg">
<path d="M0.65625 24V45H42.6562V3H0.65625V24ZM26.1415 37.3455C26.3305 37.2388 27.0357 36.831 27.7025 36.4443L28.91 35.7443L29.1638 36.1187C29.5173 36.6577 30.289 37.398 30.7563 37.6448C32.0968 38.3518 33.936 38.252 34.8425 37.4383C35.1802 37.153 35.392 36.7295 35.392 36.257C35.392 36.229 35.392 36.2028 35.3903 36.1748V36.1782C35.3903 35.6917 35.329 35.4783 35.0752 35.1108C34.7497 34.6453 34.083 34.2533 32.1895 33.4307C30.023 32.498 29.0903 31.9187 28.2362 30.9982C27.7218 30.4137 27.3245 29.7103 27.0935 28.9368L27.083 28.8983C26.9237 28.305 26.8835 26.8175 27.0095 26.219C27.4557 24.1242 29.036 22.6665 31.3162 22.2325C32.0565 22.0925 33.7767 22.145 34.503 22.3253V22.327C35.5705 22.593 36.3825 23.0673 37.1297 23.8408C37.5165 24.2537 38.0905 25.0063 38.136 25.1882C38.15 25.2407 36.323 26.4657 35.217 27.1535C35.1768 27.1798 35.0158 27.0065 34.8372 26.7405C34.2948 25.953 33.7295 25.6135 32.8633 25.554C31.5892 25.4665 30.7703 26.1332 30.7773 27.2463C30.7773 27.2655 30.7755 27.2882 30.7755 27.311C30.7755 27.5753 30.842 27.8237 30.9592 28.0408L30.9557 28.032C31.2357 28.6112 31.7573 28.9595 33.3883 29.6648C36.3965 30.9598 37.6828 31.812 38.4825 33.0247C39.375 34.3775 39.5762 36.5387 38.969 38.1452C38.304 39.8918 36.6503 41.0783 34.3228 41.4702C33.6035 41.598 31.8972 41.5788 31.1237 41.4388C29.4368 41.1377 27.8373 40.3047 26.8503 39.211C26.4635 38.7857 25.7093 37.671 25.7565 37.5923C25.7758 37.5643 25.949 37.4575 26.1415 37.3455ZM9.85775 24.1137C9.85775 23.1792 9.877 22.3988 9.90325 22.3813C9.92425 22.3533 13.251 22.3393 17.283 22.3463L24.6243 22.3673L24.6435 24.0805L24.6575 25.8008H19.1888V41.3338H15.3212V25.8008H9.85775V24.1137Z" fill="#B2AE9C"/>
</svg>
