<svg width="182" height="48" viewBox="0 0 182 48" fill="none" xmlns="http://www.w3.org/2000/svg">
<path fill-rule="evenodd" clip-rule="evenodd" d="M13.5264 18.6672C15.3027 11.5557 19.7481 8 26.8581 8C37.5252 8 38.856 15.9966 44.188 17.3319C47.7438 18.2216 50.8539 16.8893 53.5199 13.3336C51.7436 20.4435 47.2981 23.9992 40.1897 23.9992C29.5226 23.9992 28.1918 16.0027 22.8598 14.6674C19.3041 13.7777 16.1939 15.1099 13.5279 18.6656L13.5264 18.6672ZM0.194702 34.6664C1.97409 27.555 6.41493 23.9992 13.5264 23.9992C24.1936 23.9992 25.5243 31.9958 30.8563 33.3311C34.4121 34.2208 37.5222 32.8885 40.1882 29.3328C38.4119 36.4443 33.9665 40 26.8565 40C16.1894 40 14.8586 32.0034 9.52657 30.6681C5.97085 29.7784 2.86073 31.1107 0.194702 34.6664Z" fill="#B2AE9C"/>
<path fill-rule="evenodd" clip-rule="evenodd" d="M69.6644 19.6136H65.5199V17.1309H76.7012V19.6136H72.5585V30.8746H69.6644V19.6136ZM82.1142 29.6042C81.7307 30.0411 81.2776 30.4116 80.7732 30.7006C80.2803 30.9833 79.6405 31.1247 78.8559 31.1247C78.4228 31.1268 77.9915 31.0682 77.5746 30.9507C77.1687 30.8347 76.8135 30.6553 76.5127 30.4125C76.2119 30.1696 75.969 29.8598 75.7914 29.4792C75.6138 29.0986 75.5196 28.6492 75.5196 28.12C75.5196 27.4278 75.6736 26.8624 75.9835 26.4256C76.2941 25.9871 76.7122 25.6358 77.1977 25.4054C77.6979 25.1607 78.2597 24.9886 78.883 24.8853C79.5121 24.7817 80.147 24.7175 80.7841 24.6932L82.0743 24.6352V24.135C82.0743 23.5189 81.9058 23.0948 81.5633 22.8665C81.2208 22.6381 80.8203 22.5222 80.36 22.5222C79.2908 22.5222 78.6819 22.9263 78.5297 23.7363L76.0651 23.5062C76.2427 22.4551 76.7066 21.694 77.4514 21.2228C78.1962 20.7516 79.2002 20.5197 80.4597 20.5197C81.2299 20.5197 81.8859 20.6103 82.4259 20.7988C82.9659 20.9872 83.4009 21.2518 83.7271 21.5961C84.0614 21.9542 84.3061 22.3865 84.4411 22.8574C84.5897 23.3503 84.6622 23.9085 84.6622 24.5246V30.8764H82.1142V29.6079V29.6042ZM82.0562 26.3894L80.8602 26.4474C80.2948 26.4709 79.8381 26.5307 79.492 26.6214C79.1458 26.712 78.8758 26.8243 78.6946 26.9584C78.5134 27.0925 78.3811 27.2484 78.3195 27.4296C78.2578 27.6108 78.2234 27.8102 78.2234 28.0276C78.2234 28.3611 78.3394 28.6256 78.5677 28.8159C78.7961 29.0062 79.1205 29.1059 79.5282 29.1059C80.2241 29.1059 80.7895 28.9464 81.2244 28.6238C81.4691 28.4426 81.6702 28.2143 81.8224 27.9406C81.9747 27.667 82.0526 27.3209 82.0526 26.9113V26.3912L82.0562 26.3894ZM86.8513 20.8259H89.5515V30.8728H86.8513V20.8259ZM86.815 17.1291H89.5877V19.5538H86.815V17.1291ZM91.8602 17.1291H94.5604V30.8728H91.8602V17.1291ZM95.7691 20.8259H98.6976L100.106 27.4858L102.03 20.922H104.382L106.195 27.5057L107.603 20.8459H110.417L107.487 30.8927H104.865L103.07 24.2709L101.258 30.8927H98.6958L95.7673 20.8459L95.7691 20.8259ZM111.644 20.8259H114.344V30.8728H111.644V20.8259ZM111.608 17.1291H114.38V19.5538H111.608V17.1291ZM116.635 20.8259H119.257V22.2123C119.656 21.6233 120.127 21.192 120.671 20.922C121.214 20.652 121.785 20.5179 122.374 20.5179C123.519 20.5179 124.367 20.8169 124.92 21.4131C125.473 22.0093 125.75 22.9498 125.75 24.2329V30.8728H123.052V24.6008C123.052 23.8759 122.918 23.4138 122.646 23.1564C122.374 22.8991 122.017 22.7722 121.568 22.7722C121.223 22.7722 120.922 22.8266 120.671 22.9263C120.419 23.026 120.185 23.1764 119.967 23.3685C119.786 23.5497 119.636 23.7635 119.514 24.0136C119.393 24.2688 119.331 24.5483 119.333 24.8309V30.8746H116.615V20.8278L116.635 20.8259ZM134.902 29.5462C134.564 30.0622 134.099 30.4833 133.553 30.7696C133.006 31.056 132.396 31.1982 131.779 31.1827C130.366 31.1827 129.315 30.7079 128.617 29.7583C127.919 28.8087 127.577 27.493 127.577 25.8131C127.569 25.0869 127.67 24.3635 127.878 23.6675C128.077 23.0187 128.362 22.4605 128.735 21.993C129.101 21.5303 129.569 21.1582 130.103 20.9057C130.647 20.652 131.254 20.5215 131.933 20.5215C132.434 20.5215 132.93 20.6121 133.425 20.7933C133.92 20.9745 134.385 21.337 134.824 21.8335V17.1363H137.524V30.88H134.904V29.5517L134.902 29.5462ZM134.844 25.7352C134.844 25.0937 134.789 24.5808 134.663 24.1948C134.536 23.8088 134.376 23.4971 134.133 23.2525C133.901 23.0223 133.648 22.89 133.372 22.7994C133.105 22.7296 132.831 22.6943 132.555 22.6943C132.266 22.693 131.98 22.7523 131.716 22.8683C131.451 22.9843 131.223 23.1637 131.022 23.4065C130.821 23.6493 130.665 23.9719 130.551 24.367C130.436 24.762 130.377 25.2368 130.377 25.7914C130.377 26.393 130.431 26.8968 130.558 27.3027C130.685 27.7087 130.817 28.0349 131.011 28.285C131.205 28.535 131.428 28.7144 131.685 28.8232C131.942 28.9319 132.22 29.0044 132.515 29.0044C133.157 29.0044 133.684 28.8177 134.095 28.4462C134.355 28.1839 134.549 27.8642 134.663 27.513C134.782 27.1469 134.844 26.6757 134.844 26.0994V25.7551V25.7352ZM155.941 26.1194C155.876 26.8515 155.706 27.5274 155.43 28.149C155.163 28.7581 154.777 29.3076 154.294 29.7655C153.783 30.2399 153.179 30.6033 152.52 30.8329C151.82 31.0866 151.009 31.2171 150.083 31.2171C149.042 31.2171 148.125 31.0431 147.335 30.697C146.57 30.369 145.891 29.8685 145.351 29.2345C144.816 28.6057 144.416 27.8446 144.146 26.9512C143.876 26.0578 143.742 25.0737 143.742 23.9973C143.742 22.881 143.887 21.8806 144.184 20.9945C144.481 20.1083 144.905 19.3526 145.456 18.7238C146.007 18.095 146.677 17.6129 147.46 17.2795C148.243 16.946 149.133 16.7793 150.124 16.7793C150.998 16.7793 151.761 16.888 152.408 17.1055C153.055 17.323 153.604 17.6383 154.048 18.0478C154.492 18.4574 154.845 18.9539 155.117 19.5302C155.399 20.1497 155.6 20.8034 155.713 21.4747L152.859 21.8408C152.717 21.0325 152.442 20.3964 152.043 19.9343C151.645 19.4722 150.996 19.2421 150.122 19.2421C149.017 19.2421 148.178 19.6553 147.609 20.4834C147.04 21.3116 146.748 22.4805 146.748 23.9955C146.748 25.5232 147.056 26.7138 147.665 27.5184C147.941 27.9111 148.31 28.2292 148.738 28.4443C149.167 28.6593 149.643 28.7646 150.122 28.7507C151.01 28.7507 151.663 28.5224 152.08 28.0675C152.496 27.6126 152.756 26.962 152.859 26.1139L155.941 26.1194ZM160.14 26.3912C160.204 27.2375 160.477 27.8537 160.956 28.2396C161.434 28.6256 162.146 28.8196 163.085 28.8196C163.535 28.8196 163.915 28.7706 164.223 28.6746C164.531 28.5785 164.781 28.4499 164.975 28.2904C165.16 28.1407 165.303 27.9452 165.388 27.7232C165.474 27.4956 165.516 27.2541 165.513 27.011C165.513 26.6485 165.381 26.3133 165.111 25.9998C164.841 25.6863 164.346 25.4561 163.625 25.3166L161.831 24.9904C161.106 24.8635 160.501 24.695 159.961 24.4902C159.421 24.2854 158.968 24.019 158.602 23.6928C158.236 23.3666 157.957 22.9643 157.764 22.4895C157.572 22.0147 157.475 21.4493 157.475 20.7951C157.463 20.194 157.598 19.5992 157.87 19.0627C158.131 18.5648 158.508 18.1362 158.968 17.8123C159.439 17.4788 160.001 17.2251 160.653 17.0511C161.305 16.8772 162.03 16.792 162.813 16.792C163.815 16.792 164.651 16.908 165.32 17.1363C165.988 17.3646 166.528 17.6709 166.94 18.0515C167.351 18.432 167.655 18.867 167.855 19.3707C168.054 19.8745 168.186 20.391 168.253 20.9292L165.535 21.2736C165.394 20.5161 165.122 19.9688 164.72 19.6371C164.317 19.3055 163.701 19.137 162.878 19.137C162.389 19.137 161.991 19.1787 161.673 19.2638C161.356 19.349 161.104 19.4559 160.912 19.59C160.735 19.7058 160.595 19.8691 160.506 20.0612C160.43 20.2424 160.39 20.4273 160.39 20.6193C160.39 21.1322 160.535 21.5182 160.825 21.7737C161.115 22.0292 161.604 22.2304 162.299 22.3717L164.187 22.7378C165.678 23.0332 166.771 23.5116 167.467 24.1694C168.163 24.8273 168.507 25.8004 168.507 27.0273C168.507 27.6289 168.395 28.1871 168.17 28.6945C167.94 29.2072 167.597 29.6613 167.166 30.0228C166.676 30.4275 166.11 30.7289 165.501 30.909C164.834 31.121 164.051 31.2262 163.148 31.2262C161.271 31.2262 159.836 30.8275 158.841 30.0228C157.846 29.2182 157.308 28.0294 157.21 26.3948H160.12L160.14 26.3912ZM172.644 26.3912C172.708 27.2375 172.981 27.8537 173.46 28.2396C173.938 28.6256 174.656 28.8196 175.589 28.8196C176.042 28.8196 176.419 28.7706 176.731 28.6746C177.043 28.5785 177.289 28.4499 177.483 28.2904C177.668 28.1407 177.81 27.9452 177.896 27.7232C177.982 27.4956 178.024 27.2541 178.021 27.011C178.016 26.6356 177.872 26.2755 177.617 25.9998C177.345 25.6863 176.852 25.4561 176.131 25.3166L174.337 24.9904C173.612 24.8635 173.007 24.695 172.467 24.4902C171.927 24.2854 171.474 24.019 171.108 23.6928C170.742 23.3666 170.463 22.9643 170.269 22.4895C170.075 22.0147 169.979 21.4493 169.979 20.7951C169.967 20.194 170.102 19.5992 170.374 19.0627C170.638 18.5625 171.004 18.1439 171.472 17.7941C171.939 17.4444 172.505 17.207 173.157 17.033C173.81 16.859 174.535 16.7739 175.317 16.7739C176.32 16.7739 177.155 16.8898 177.824 17.1182C178.492 17.3465 179.031 17.6528 179.444 18.0333C179.857 18.4139 180.161 18.8488 180.359 19.3526C180.556 19.8564 180.691 20.3729 180.758 20.9111L178.039 21.2554C177.898 20.4979 177.626 19.9506 177.224 19.619C176.822 19.2874 176.205 19.1189 175.383 19.1189C174.893 19.1189 174.495 19.1605 174.178 19.2457C173.86 19.3309 173.609 19.4378 173.416 19.5719C173.239 19.6876 173.099 19.8509 173.01 20.0431C172.933 20.2243 172.895 20.4091 172.895 20.6012C172.895 21.1141 173.039 21.5001 173.329 21.7556C173.619 22.0111 174.109 22.2123 174.805 22.3536L176.711 22.7342C178.202 23.0296 179.295 23.508 179.991 24.1658C180.687 24.8237 181.031 25.7968 181.031 27.0237C181.038 27.5964 180.923 28.1639 180.694 28.6891C180.464 29.2021 180.121 29.6563 179.69 30.0174C179.248 30.398 178.694 30.6915 178.023 30.9054C177.353 31.1192 176.573 31.2225 175.673 31.2225C173.795 31.2225 172.36 30.8238 171.363 30.0192C170.366 29.2146 169.83 28.0258 169.754 26.3912H172.644Z" fill="#B2AE9C"/>
</svg>
