<svg width="35" height="48" viewBox="0 0 35 48" fill="none" xmlns="http://www.w3.org/2000/svg">
<g clip-path="url(#clip0_149_32)">
<path fill-rule="evenodd" clip-rule="evenodd" d="M15.6099 4.85083C21.1624 1.3271 28.8861 2.96439 32.7658 8.55253C34.6522 11.1508 35.3997 14.4254 34.7946 17.6288C34.5455 19.1237 33.976 20.5474 33.1217 21.8288C34.3675 24.1424 34.759 26.8119 34.2963 29.4102C33.7624 32.5068 31.9116 35.2474 29.2421 36.9203L19.4539 43.1491C13.9014 46.6729 6.21326 45.0356 2.29801 39.4474C0.447159 36.8491 -0.300299 33.5746 0.269193 30.4068C0.518345 28.9119 1.08784 27.4881 1.94207 26.2068C0.696311 23.8932 0.304786 21.2237 0.767498 18.6254C1.3014 15.5288 3.15224 12.7881 5.82174 11.1152L15.6099 4.85083ZM6.32142 36.8855C8.17226 39.555 11.4824 40.8007 14.6502 39.9821C15.3621 39.7685 16.0384 39.4838 16.6434 39.0923L26.4316 32.8634C28.0333 31.8668 29.1723 30.1939 29.4926 28.3431C29.8129 26.4211 29.3858 24.4634 28.2468 22.8973C26.396 20.2278 23.0858 18.9821 19.918 19.8007C19.2062 20.0143 18.5299 20.299 17.9248 20.6906L14.1875 23.0753C14.0096 23.1821 13.796 23.2533 13.5825 23.3244L13.5824 23.3245C12.6214 23.5736 11.6248 23.2177 11.0553 22.399C10.735 21.9363 10.5926 21.3312 10.6994 20.7617C10.8062 20.1923 11.1265 19.7295 11.6248 19.4092L21.3773 13.1804C21.5553 13.0736 21.7689 13.0024 21.9824 12.9312C22.9434 12.6821 23.9401 13.038 24.5095 13.8567C24.7943 14.2838 24.9367 14.8177 24.9011 15.316L24.8655 15.6719L25.2214 15.7787C26.6095 16.2058 27.8909 16.8465 29.0655 17.7007L29.5638 18.0567L29.7417 17.4872C29.8485 17.1668 29.9197 16.8821 29.9909 16.5617C30.3112 14.6397 29.8841 12.6821 28.7451 11.116C26.8943 8.44649 23.5841 7.20073 20.4163 8.01938C19.7045 8.23294 19.0282 8.51768 18.4231 8.90921L8.63498 15.138C7.03328 16.1346 5.8943 17.8075 5.57396 19.6584C5.21803 21.5804 5.68074 23.538 6.78413 25.1041C8.63498 27.7736 11.9451 29.0194 15.1129 28.2007C15.8248 28.0228 16.5011 27.738 17.1062 27.3465L20.8434 24.9617C21.0214 24.855 21.235 24.7838 21.4485 24.7126C22.4095 24.4634 23.4062 24.8194 23.9756 25.638C24.296 26.1007 24.4384 26.7058 24.3316 27.2753C24.2248 27.8448 23.9045 28.3075 23.4062 28.6278L13.6536 34.8567C13.4757 34.9634 13.2621 35.0346 13.0486 35.1058L13.0485 35.1058C12.0875 35.355 11.0909 34.9634 10.5214 34.1448C10.2367 33.7177 10.0943 33.1838 10.1299 32.6855L10.1655 32.3295L9.80955 32.2228C8.42142 31.7956 7.14006 31.155 5.96549 30.3007L5.46718 29.9448L5.28921 30.5143C5.25362 30.6745 5.21803 30.8257 5.18244 30.977C5.14684 31.1283 5.11125 31.2795 5.07565 31.4397C4.75532 33.3617 5.18243 35.3194 6.32142 36.8855Z" fill="#B2AE9C"/>
</g>
<defs>
<clipPath id="clip0_149_32">
<rect width="34.9178" height="48" fill="white" transform="translate(0.0822754)"/>
</clipPath>
</defs>
</svg>
