<svg width="48" height="48" viewBox="0 0 48 48" fill="none" xmlns="http://www.w3.org/2000/svg">
<path d="M23.6013 28.2827C25.9665 28.2827 27.8839 26.3653 27.8839 24C27.8839 21.6348 25.9665 19.7174 23.6013 19.7174C21.236 19.7174 19.3186 21.6348 19.3186 24C19.3186 26.3653 21.236 28.2827 23.6013 28.2827Z" fill="#B2AE9C"/>
<path d="M39.8674 16.9374C39.0409 16.6369 38.1769 16.3363 37.2753 16.0733C37.5007 15.1717 37.6885 14.2701 37.8388 13.4061C38.6277 8.44723 37.7636 4.95349 35.3593 3.60107C34.6456 3.18784 33.8567 3 32.9551 3C30.3254 3 26.9819 4.95349 23.6009 8.22182C20.2198 4.95349 16.8763 3 14.2466 3C13.345 3 12.5561 3.18784 11.8424 3.60107C9.43806 4.99106 8.57402 8.48479 9.36293 13.4061C9.5132 14.2701 9.70103 15.1717 9.92644 16.0733C9.02483 16.3363 8.16078 16.5993 7.33431 16.9374C2.63842 18.7406 0.0838623 21.22 0.0838623 24C0.0838623 26.78 2.67599 29.2594 7.33431 31.0626C8.16078 31.3631 9.02483 31.6637 9.92644 31.9267C9.70103 32.8283 9.5132 33.7299 9.36293 34.5939C8.57402 39.5528 9.43806 43.0465 11.8424 44.3989C12.5561 44.8122 13.345 45 14.2466 45C16.9139 45 20.2574 43.0465 23.6009 39.7782C26.9819 43.0465 30.3254 45 32.9551 45C33.8567 45 34.6456 44.8122 35.3593 44.3989C37.7636 43.0089 38.6277 39.5152 37.8388 34.5939C37.6885 33.7299 37.5007 32.8283 37.2753 31.9267C38.1769 31.6637 39.0409 31.4007 39.8674 31.0626C44.5633 29.2594 47.1178 26.78 47.1178 24C47.1178 21.22 44.5633 18.7406 39.8674 16.9374ZM34.3075 5.47943C35.8477 6.38104 36.3737 9.161 35.735 13.1055C35.6223 13.8945 35.4345 14.7209 35.2091 15.585C33.2556 15.1342 31.1894 14.8336 29.0105 14.6458C27.7332 12.8426 26.4184 11.2272 25.1035 9.76207C27.8835 7.01968 30.701 5.14132 32.9926 5.14132C33.481 5.14132 33.9318 5.25402 34.3075 5.47943ZM30.1 27.7567C29.4237 28.9589 28.6348 30.161 27.8084 31.3631C26.4184 31.4758 25.0284 31.5134 23.6009 31.5134C22.1357 31.5134 20.7458 31.4758 19.3933 31.3631C18.5669 30.161 17.8155 28.9589 17.1393 27.7567C16.4255 26.517 15.7493 25.2397 15.1483 24C15.7493 22.7603 16.4255 21.483 17.1393 20.2433C17.8155 19.0411 18.6044 17.839 19.4309 16.6369C20.8209 16.5242 22.2109 16.4866 23.6384 16.4866C25.1035 16.4866 26.4935 16.5242 27.8459 16.6369C28.6724 17.839 29.4237 19.0411 30.1 20.2433C30.8137 21.483 31.4899 22.7603 32.091 24C31.4524 25.2397 30.8137 26.4794 30.1 27.7567ZM33.218 26.517C33.7815 27.8318 34.2323 29.1091 34.6456 30.3864C33.3683 30.6869 32.0159 30.9123 30.5883 31.1002C31.0391 30.3864 31.5275 29.6351 31.9407 28.8462C32.3915 28.0572 32.8048 27.2683 33.218 26.517ZM23.6009 36.6977C22.6992 35.7209 21.8352 34.6691 21.0087 33.5796C21.8728 33.6172 22.7368 33.6547 23.6009 33.6547C24.4649 33.6547 25.3289 33.6172 26.193 33.5796C25.3665 34.6691 24.5025 35.7209 23.6009 36.6977ZM16.6134 31.0626C15.1858 30.8748 13.8334 30.6494 12.5561 30.3488C12.9694 29.1091 13.4202 27.7943 13.9837 26.4794C14.3969 27.2308 14.8102 28.0197 15.261 28.771C15.7118 29.5975 16.1626 30.3113 16.6134 31.0626ZM13.9837 21.483C13.4202 20.1682 12.9694 18.8909 12.5561 17.6136C13.8334 17.3131 15.1858 17.0877 16.6134 16.8998C16.1626 17.6136 15.6742 18.3649 15.261 19.1538C14.8102 19.9428 14.3969 20.7317 13.9837 21.483ZM23.6009 11.3023C24.5025 12.2791 25.3665 13.3309 26.193 14.4204C25.3289 14.3828 24.4649 14.3453 23.6009 14.3453C22.7368 14.3453 21.8728 14.3828 21.0087 14.4204C21.8352 13.3309 22.6992 12.2791 23.6009 11.3023ZM31.9407 19.1914L30.5883 16.9374C32.0159 17.1252 33.3683 17.3506 34.6456 17.6512C34.2323 18.8909 33.7815 20.2057 33.218 21.5206C32.8048 20.7317 32.3915 19.9428 31.9407 19.1914ZM11.4667 13.1055C10.828 9.161 11.354 6.38104 12.8942 5.47943C13.2699 5.25402 13.7207 5.14132 14.2091 5.14132C16.4631 5.14132 19.2806 6.98211 22.0982 9.76207C20.7833 11.1896 19.4685 12.8426 18.1912 14.6458C16.0123 14.8336 13.9461 15.1717 11.9926 15.585C11.7672 14.7209 11.617 13.8945 11.4667 13.1055ZM2.18762 24C2.18762 22.2343 4.32894 20.356 8.08565 18.966C8.83699 18.6655 9.66347 18.4025 10.4899 18.1771C11.091 20.0555 11.8424 22.0465 12.744 24.0376C11.8424 26.0286 11.0534 27.9821 10.4899 29.8605C5.30569 28.3578 2.18762 26.1038 2.18762 24ZM12.8942 42.5206C11.354 41.619 10.828 38.839 11.4667 34.8945C11.5794 34.1055 11.7672 33.2791 11.9926 32.415C13.9461 32.8658 16.0123 33.1664 18.1912 33.3542C19.4685 35.1574 20.7833 36.7728 22.0982 38.2379C19.3182 40.9803 16.5007 42.8587 14.2091 42.8587C13.7207 42.8587 13.2699 42.746 12.8942 42.5206ZM35.735 34.8945C36.3737 38.839 35.8477 41.619 34.3075 42.5206C33.9318 42.746 33.481 42.8587 32.9926 42.8587C30.7386 42.8587 27.9211 41.0179 25.1035 38.2379C26.4184 36.8104 27.7332 35.1574 29.0105 33.3542C31.1894 33.1664 33.2556 32.8283 35.2091 32.415C35.4345 33.2791 35.5848 34.1055 35.735 34.8945ZM39.1161 29.034C38.3647 29.3345 37.5382 29.5975 36.7118 29.8229C36.1107 27.9445 35.3593 25.9535 34.4577 23.9624C35.3593 21.9714 36.1483 20.0179 36.7118 18.1395C41.896 19.6422 45.0141 21.8962 45.0141 24C45.0141 25.7657 42.8352 27.644 39.1161 29.034Z" fill="#B2AE9C"/>
</svg>
