<svg width="171" height="48" viewBox="0 0 171 48" fill="none" xmlns="http://www.w3.org/2000/svg">
<path d="M0 37.5L5.41505 3.33432C5.48124 2.91531 5.81174 2.585 6.23575 2.51398C6.65977 2.44295 7.0823 2.64729 7.28505 3.02126L12.8851 13.3202L15.1173 9.12962C15.2902 8.8056 15.631 8.60271 16.0023 8.60271C16.3737 8.60271 16.7145 8.8056 16.8874 9.12962L32 37.4999L0 37.5Z" fill="#B2AE9C"/>
<path d="M19 24.2928L13.0839 13.5L0 37.5L19 24.2928Z" fill="#4B4343"/>
<path d="M32 37.244L27.8525 12.3093C27.7899 11.9512 27.5268 11.6571 27.1706 11.5462C26.8144 11.4353 26.4246 11.5276 26.16 11.7843L0 37.2437L14.475 45.1302C15.384 45.6233 16.491 45.6233 17.4 45.1302L32 37.2437V37.244Z" fill="#B2AE9C"/>
<path d="M27.8548 12.1688C27.7921 11.8063 27.5292 11.5085 27.1732 11.3963C26.8172 11.284 26.4276 11.3775 26.1632 11.6374L20.9739 16.757L16.8932 9.11224C16.7205 8.78903 16.3798 8.58665 16.0087 8.58665C15.6376 8.58665 15.297 8.78903 15.1242 9.11224L12.8932 13.2923L7.29595 3.01939C7.09298 2.64626 6.67018 2.44276 6.24589 2.51414C5.82161 2.58552 5.4924 2.91582 5.42698 3.33411L0.0174451 37.4115H0L0.0174451 37.4312L0.159857 37.5L26.1556 11.8885C26.4199 11.6272 26.8105 11.5333 27.1675 11.6452C27.5244 11.7571 27.7878 12.056 27.8498 12.4196L31.96 37.436L32 37.4114L27.8548 12.1688ZM0.0649158 37.3648L5.4295 3.57511C5.49485 3.15683 5.82483 2.82652 6.24875 2.75514C6.67266 2.68377 7.0955 2.8872 7.2988 3.26039L12.8955 13.5335L15.1264 9.3534C15.2992 9.0302 15.6398 8.82782 16.011 8.82782C16.3821 8.82782 16.7227 9.0302 16.8955 9.3534L20.8933 16.8357L0.0649158 37.3648Z" fill="#B2AE9C"/>
<path opacity="0.2" d="M17.4 44.8571C16.491 45.3806 15.384 45.3806 14.475 44.8571L0.0350097 36.5077L0 36.7372L14.475 45.1074C15.384 45.6309 16.491 45.6309 17.4 45.1074L32 36.7372L31.9625 36.5L17.4 44.8571Z" fill="#B2AE9C"/>
<path d="M51.1903 36.1882H48V11.551H62.4888V14.5779H51.1906V22.6667H61.3815V25.6237H51.1906V36.1882L51.1903 36.1882ZM68.4875 15.0967C67.7269 15.8549 66.5327 15.974 65.6355 15.3812C64.7382 14.7884 64.3879 13.6489 64.7991 12.6599C65.2103 11.6709 66.268 11.1079 67.3253 11.3156C68.3827 11.5232 69.1449 12.4436 69.1456 13.5134C69.1559 14.1093 68.9166 14.6826 68.4848 15.0967H68.4875ZM68.4875 36.1882H65.2972V19.328H68.4875V36.1882ZM75.4881 36.1882H72.2979V19.328H75.3473V22.0807H75.4854C75.8538 21.1107 76.5612 20.3045 77.4787 19.8092C78.3548 19.2509 79.3681 18.9413 80.4089 18.914C81.226 18.891 82.0393 19.0318 82.8003 19.328L81.587 22.285C81.0398 22.1042 80.4648 22.0223 79.8889 22.043C78.7191 22.0489 77.6057 22.5425 76.8206 23.4033C75.9305 24.3101 75.4855 25.4974 75.4855 26.9651L75.4881 36.1882ZM91.5423 36.7258C88.9767 36.7258 86.8914 35.8773 85.2864 34.1804C83.6813 32.4835 82.8779 30.3426 82.8761 27.7583C82.8289 25.4315 83.6641 23.1721 85.216 21.4277C86.7023 19.6913 88.901 18.7167 91.1956 18.7767C93.7142 18.7767 95.7309 19.5913 97.2457 21.2203C98.7605 22.8493 99.5169 25.0286 99.5148 27.758L99.4796 28.344H86.0605C86.1526 30.0411 86.7249 31.3853 87.7775 32.3763C88.7618 33.3353 90.0895 33.8672 91.4684 33.8548C93.7559 33.8548 95.3041 32.8912 96.1129 30.965L98.9566 32.1343C98.3804 33.4674 97.4299 34.6078 96.2186 35.4193C94.9459 36.2903 93.3868 36.7258 91.5415 36.7258L91.5423 36.7258ZM96.1191 25.7043C96.0505 24.7402 95.6055 23.8226 94.784 22.9516C93.9625 22.0806 92.7411 21.6541 91.1198 21.672C89.9953 21.6525 88.9029 22.0449 88.0515 22.7742C87.1594 23.5501 86.5352 24.5844 86.2667 25.7312L96.1191 25.7043ZM111.041 36.7258C109.834 36.7496 108.64 36.4723 107.569 35.9194C106.629 35.4485 105.833 34.7355 105.265 33.8549H105.127V36.1882H102.074V11.551H105.265V19.328L105.127 21.6667H105.265C105.833 20.7861 106.629 20.0731 107.569 19.6022C108.639 19.0429 109.833 18.7591 111.041 18.7769C113.237 18.7769 115.132 19.6371 116.728 21.3576C118.325 23.078 119.122 25.2115 119.12 27.7581C119.118 30.3047 118.323 32.4382 116.728 34.1587C115.134 35.8791 113.238 36.7348 111.041 36.7258ZM110.521 33.836C111.975 33.8475 113.363 33.2397 114.334 32.1667C115.398 31.0538 115.929 29.5798 115.929 27.7446C115.929 25.9094 115.398 24.4355 114.334 23.3225C113.352 22.2624 111.968 21.6578 110.517 21.6547C109.065 21.6516 107.679 22.2504 106.692 23.3063C105.641 24.4067 105.116 25.8861 105.116 27.7445C105.116 29.603 105.646 31.0868 106.708 32.1962C107.685 33.2651 109.078 33.867 110.532 33.8494L110.521 33.836ZM127.242 36.7258C125.436 36.7258 123.929 36.2097 122.719 35.1775C121.509 34.1453 120.903 32.7805 120.899 31.0834C120.899 29.2482 121.616 27.8092 123.049 26.7661C124.483 25.7231 126.25 25.2016 128.352 25.2016C130.224 25.2016 131.759 25.5457 132.956 26.2339V25.7527C133.002 24.6194 132.53 23.5262 131.672 22.7769C130.799 22.0302 129.675 21.6359 128.523 21.6721C127.641 21.6611 126.772 21.8865 126.009 22.3253C125.295 22.7183 124.747 23.3539 124.466 24.1156L121.554 22.8763C121.948 21.8638 122.723 20.9247 123.882 20.0591C125.041 19.1936 126.563 18.7634 128.459 18.7688C130.625 18.7688 132.431 19.3961 133.875 20.6505C135.319 21.905 136.036 23.6828 136.025 25.9839V36.1882H132.965V33.8495H132.827C131.554 35.7671 129.694 36.7222 127.245 36.7222L127.242 36.7258ZM127.762 33.836C129.102 33.8314 130.389 33.3122 131.353 32.3871C132.38 31.5277 132.974 30.2634 132.978 28.9301C132.075 28.1953 130.721 27.8279 128.915 27.8279C127.366 27.8279 126.199 28.1603 125.414 28.8252C124.681 29.3845 124.246 30.2463 124.236 31.1639C124.221 31.9624 124.633 32.7094 125.319 33.1263C126.041 33.6077 126.893 33.8599 127.762 33.8494V33.8359L127.762 33.836ZM145.405 36.7258C143.51 36.7258 141.944 36.267 140.709 35.3495C139.508 34.4686 138.572 33.2789 138.001 31.9086L140.845 30.7393C141.748 32.8504 143.282 33.9059 145.449 33.9059C146.309 33.9409 147.16 33.7129 147.886 33.2527C148.485 32.8838 148.846 32.2316 148.839 31.5323C148.839 30.4319 148.065 29.6864 146.512 29.2957L143.081 28.4704C141.952 28.1739 140.9 27.6404 139.996 26.9059C139.035 26.1613 138.492 25.0029 138.539 23.793C138.539 22.3021 139.204 21.0923 140.533 20.1639C141.923 19.2168 143.578 18.7295 145.264 18.7714C146.671 18.7491 148.059 19.1009 149.283 19.7903C150.438 20.4415 151.332 21.469 151.812 22.6989L149.042 23.8225C148.419 22.3316 147.124 21.5859 145.158 21.5859C144.322 21.5583 143.494 21.7612 142.767 22.172C142.171 22.4784 141.797 23.0891 141.797 23.7553C141.797 24.7195 142.548 25.3736 144.05 25.7177L147.411 26.5107C149.005 26.8691 150.184 27.4964 150.948 28.3924C151.688 29.2295 152.094 30.3059 152.091 31.4193C152.106 32.9038 151.412 34.3077 150.22 35.2043C148.972 36.2186 147.366 36.7258 145.402 36.7258L145.405 36.7258ZM162.564 36.7258C159.999 36.7258 157.914 35.8773 156.309 34.1804C154.704 32.4835 153.9 30.3378 153.898 27.7446C153.851 25.4179 154.686 23.1585 156.238 21.414C157.73 19.682 159.931 18.7126 162.226 18.7769C164.753 18.7769 166.77 19.5914 168.276 21.2205C169.782 22.8495 170.538 25.0287 170.545 27.7581L170.51 28.3441H157.08C157.172 30.0412 157.744 31.3854 158.797 32.3764C159.784 33.3354 161.115 33.8655 162.496 33.8495C164.784 33.8495 166.332 32.8858 167.141 30.9597L169.985 32.129C169.408 33.4622 168.458 34.6025 167.247 35.4139C165.974 36.2885 164.413 36.7258 162.564 36.7258L162.564 36.7258ZM167.141 25.7043C167.073 24.7402 166.628 23.8226 165.806 22.9516C164.985 22.0806 163.765 21.6541 162.147 21.672C161.023 21.6527 159.931 22.0451 159.079 22.7742C158.187 23.5501 157.563 24.5844 157.294 25.7312L167.141 25.7043Z" fill="#B2AE9C"/>
</svg>
