<svg width="115" height="48" viewBox="0 0 115 48" fill="none" xmlns="http://www.w3.org/2000/svg">
<path d="M0.58313 20.3745C0.77486 19.4615 0.89355 18.4664 1.15832 17.5351C2.73781 11.9201 9.17447 9.58287 13.6025 13.0614C16.1954 15.0974 16.8437 17.9825 16.7159 21.2328H2.10784C1.87046 27.0394 6.06114 30.5454 11.4205 28.7559C12.2898 28.4449 13.068 27.9223 13.6849 27.2353C14.3018 26.5483 14.7378 25.7185 14.9538 24.8208C15.2368 23.9078 15.6933 23.7526 16.5606 24.0174C16.4178 25.1289 16.0248 26.1935 15.4112 27.1313C14.7976 28.069 13.9795 28.8555 13.0182 29.4315C11.4299 30.3 9.60773 30.6441 7.81213 30.4145C6.01652 30.185 4.33949 29.3935 3.02084 28.1533C1.71631 26.6865 0.927518 24.8332 0.77486 22.8762C0.77486 22.5657 0.65617 22.2553 0.59226 21.9632C0.586173 21.4214 0.58313 20.8919 0.58313 20.3745ZM2.1261 19.9819H15.3372C15.2551 15.773 12.5982 12.7875 9.05578 12.7601C5.11161 12.7053 2.29044 15.6269 2.11697 19.9637L2.1261 19.9819Z" fill="#B2AE9C"/>
<path d="M34.6629 29.5869C34.1849 29.7679 33.6572 29.7675 33.1794 29.5858C32.7016 29.4041 32.307 29.0537 32.07 28.6008C30.5818 26.3731 28.9384 24.2458 27.3589 22.0729L26.6742 21.1599C24.7934 23.6798 22.9126 26.0992 21.1962 28.61C20.9725 29.0428 20.5992 29.3796 20.1457 29.5577C19.6922 29.7357 19.1895 29.7428 18.7311 29.5777L25.7886 20.1099L19.2241 11.5551C19.6966 11.3845 20.2136 11.3821 20.6876 11.5485C21.1617 11.7148 21.5638 12.0396 21.8262 12.4681C23.3509 14.6958 25.0399 16.8231 26.7198 19.0782C28.4089 16.8414 30.0797 14.705 31.6409 12.4955C31.8658 12.0697 32.2393 11.7414 32.6905 11.573C33.1416 11.4047 33.6389 11.4081 34.0878 11.5825L31.5405 14.9606C30.3992 16.4671 29.2762 17.9826 28.0893 19.4526C27.9937 19.5382 27.9172 19.643 27.8648 19.7602C27.8124 19.8774 27.7854 20.0044 27.7854 20.1328C27.7854 20.2611 27.8124 20.3881 27.8648 20.5053C27.9172 20.6225 27.9937 20.7273 28.0893 20.8129C30.2714 23.7072 32.4352 26.6105 34.6629 29.5869Z" fill="#B2AE9C"/>
<path d="M36.663 36.5746V11.8505H38.0051V15.7399C38.1636 15.5676 38.31 15.3845 38.4433 15.1921C38.9917 14.0537 39.8533 13.0952 40.927 12.429C42.0007 11.7627 43.2421 11.4164 44.5056 11.4305C47.5642 11.3392 50.0476 12.4713 51.5084 15.1921C52.4378 16.8822 52.9494 18.7703 53.0002 20.6985C53.051 22.6267 52.6397 24.5391 51.8005 26.2759C50.4402 29.3253 47.0803 30.8409 43.4831 30.284C42.3637 30.1886 41.2859 29.8145 40.3482 29.1957C39.4105 28.577 38.6426 27.7332 38.1146 26.7415V36.5746H36.663ZM38.0051 20.597C38.1238 21.8022 38.1694 22.6604 38.3064 23.5004C38.8359 26.8054 40.7897 28.7684 43.8574 29.1245C45.2978 29.3612 46.7758 29.0912 48.0394 28.3603C49.303 27.6295 50.2741 26.483 50.7871 25.1164C51.3766 23.7107 51.6603 22.1957 51.6194 20.6719C51.5785 19.1482 51.2138 17.6506 50.5497 16.2785C50.0021 15.0537 49.0708 14.0402 47.8964 13.3913C46.7221 12.7423 45.3685 12.4931 44.04 12.6813C42.7927 12.7717 41.6046 13.2484 40.6409 14.0453C39.6771 14.8422 38.9856 15.9196 38.6624 17.1276C38.3765 18.2704 38.157 19.4288 38.0051 20.597Z" fill="#B2AE9C"/>
<path d="M63.3584 11.4254V12.7036C62.4349 12.6431 61.5091 12.7768 60.6405 13.0962C59.772 13.4156 58.9801 13.9135 58.3159 14.5579C57.6517 15.2023 57.1301 15.9788 56.7845 16.8373C56.439 17.6958 56.2774 18.6172 56.31 19.542C56.31 22.5488 56.31 25.5556 56.31 28.5624C56.31 28.882 56.31 29.2015 56.31 29.585H55.0044V11.4985H56.2826V15.2052C57.8621 12.5028 60.2998 11.4985 63.3584 11.4254Z" fill="#B2AE9C"/>
<path d="M81.2029 23.9802C80.9995 25.721 80.1709 27.3286 78.871 28.5042C77.5712 29.6798 75.8886 30.3433 74.1363 30.3712C68.5122 30.6543 65.8736 26.9201 65.4536 22.6107C65.1621 20.2705 65.5421 17.8957 66.5492 15.7632C67.2506 14.3005 68.3992 13.0989 69.8289 12.3324C71.2585 11.5659 72.895 11.2742 74.5015 11.4995C76.0287 11.629 77.4766 12.2356 78.6399 13.2335C79.8033 14.2314 80.6233 15.57 80.9838 17.0597C81.2695 18.4165 81.4799 19.7881 81.6138 21.1682H66.8323C66.5584 25.0758 68.6583 28.2166 71.6347 28.9744C75.3414 29.8874 78.5096 28.2805 79.6599 24.7563C79.9156 23.8524 80.3812 23.7246 81.2029 23.9802ZM66.8323 19.9174H80.0434C79.9612 15.7541 77.3683 12.7412 73.8532 12.6956C69.8726 12.6316 67.0057 15.535 66.8323 19.9174Z" fill="#B2AE9C"/>
<path d="M83.6139 24.1144H84.9104C84.9583 25.0684 85.2682 25.9907 85.8062 26.7799C86.3442 27.5692 87.0894 28.1948 87.9598 28.5881C89.0528 29.08 90.2427 29.319 91.4409 29.2874C92.6391 29.2558 93.8148 28.9543 94.8804 28.4055C95.4611 28.1437 95.9475 27.7101 96.274 27.1632C96.6005 26.6163 96.7514 25.9823 96.7064 25.347C96.7398 24.7342 96.5724 24.1272 96.2297 23.6181C95.887 23.1089 95.3876 22.7255 94.8073 22.5258C93.383 21.9962 91.8674 21.7041 90.4158 21.2385C88.9053 20.8083 87.4284 20.2682 85.9969 19.6224C83.6596 18.4812 83.5135 14.0349 86.1612 12.6289C87.5169 11.8638 89.0427 11.4504 90.5992 11.4265C92.1557 11.4026 93.6935 11.7689 95.0721 12.4919C95.9072 12.9534 96.5818 13.6586 97.0059 14.5134C97.43 15.3681 97.5835 16.3318 97.4459 17.276H96.332C96.332 17.2212 96.2316 17.1756 96.2316 17.1208C96.0946 13.5692 93.1183 12.4736 89.9228 12.7841C88.9688 12.9017 88.0423 13.1828 87.1838 13.6149C86.668 13.8508 86.2381 14.241 85.9536 14.7316C85.669 15.2222 85.5438 15.7891 85.5951 16.3539C85.5967 16.919 85.7731 17.4698 86.1 17.9307C86.4269 18.3916 86.8884 18.7402 87.4211 18.9286C88.8272 19.4398 90.2971 19.7685 91.7396 20.1702C92.8991 20.4898 94.1043 20.6998 95.2273 21.0832C96.0199 21.3431 96.7149 21.8375 97.2203 22.501C97.7257 23.1646 98.0177 23.966 98.0576 24.7992C98.1931 25.712 98.0376 26.6444 97.6131 27.4639C97.1886 28.2833 96.5168 28.9482 95.6929 29.3642C92.6435 31.0897 87.622 30.6332 85.3851 28.4512C84.8182 27.881 84.3698 27.2042 84.0658 26.4599C83.7618 25.7156 83.6082 24.9184 83.6139 24.1144Z" fill="#B2AE9C"/>
<path d="M113.909 17.2522H112.694C112.694 17.0878 112.63 16.9417 112.612 16.8048C112.592 15.8946 112.261 15.0188 111.672 14.324C111.084 13.6293 110.275 13.1578 109.38 12.9884C107.692 12.5042 105.892 12.5908 104.258 13.2349C103.613 13.4201 103.044 13.8091 102.638 14.3439C102.231 14.8786 102.009 15.5305 102.003 16.2022C101.98 16.8618 102.186 17.5091 102.585 18.0347C102.984 18.5604 103.553 18.9321 104.194 19.0873C106.02 19.6533 107.892 20.0003 109.745 20.5116C110.346 20.6557 110.937 20.8356 111.517 21.0502C112.381 21.3597 113.133 21.9228 113.673 22.666C114.212 23.4092 114.515 24.298 114.542 25.2161C114.569 26.1342 114.318 27.039 113.822 27.8123C113.326 28.5855 112.609 29.1913 111.763 29.5503C110.475 30.1353 109.078 30.4449 107.663 30.459C106.248 30.4732 104.846 30.1916 103.546 29.6324C102.477 29.1714 101.575 28.394 100.961 27.4048C100.348 26.4156 100.052 25.2622 100.113 24.0997H100.624H101.3C101.52 25.159 101.994 26.1489 102.682 26.9835C103.371 27.8182 104.252 28.4724 105.25 28.8897C106.249 29.3069 107.333 29.4746 108.411 29.3781C109.488 29.2816 110.526 28.9239 111.434 28.336C111.988 28.0486 112.447 27.6085 112.758 27.068C113.068 26.5275 113.217 25.9093 113.187 25.2866C113.215 24.6734 113.042 24.068 112.694 23.5622C112.346 23.0563 111.843 22.6777 111.261 22.4836C109.837 21.9541 108.321 21.6711 106.869 21.2054C105.35 20.782 103.864 20.2479 102.423 19.6077C100.141 18.4847 99.958 14.0749 102.56 12.6689C103.933 11.8718 105.488 11.4436 107.075 11.426C108.662 11.4084 110.227 11.802 111.617 12.5685C112.412 13.043 113.052 13.7383 113.459 14.5699C113.865 15.4014 114.022 16.3333 113.909 17.2522Z" fill="#B2AE9C"/>
</svg>
