<svg width="44" height="48" viewBox="0 0 44 48" fill="none" xmlns="http://www.w3.org/2000/svg">
<path d="M41.366 10.6357L23.8613 0.471588C22.7574 -0.157196 21.32 -0.157196 20.2073 0.471588L2.51557 10.6357C1.37629 11.2911 0.570068 12.5229 0.570068 13.8404V34.1417C0.570068 35.4592 1.39733 36.6914 2.53661 37.3504L7.21081 40.0052C9.4449 41.1056 10.2345 41.1056 11.2511 41.1056C14.5589 41.1056 16.4485 39.1053 16.4485 35.6164V15.5739C16.4485 15.2909 16.3012 14.8697 16.0233 14.8697H13.7912C13.5086 14.8697 12.8758 15.2909 12.8758 15.5735V35.616C12.8758 37.1626 11.4769 38.7016 8.86256 37.3944L4.03275 34.6105C3.86444 34.5192 3.74575 34.3355 3.74575 34.1417V13.8404C3.74575 13.6491 3.96606 13.4569 4.13556 13.3589L21.7701 3.2122C21.9348 3.11891 22.177 3.11891 22.3413 3.2122L39.7607 13.3565C39.9274 13.4569 39.8687 13.6431 39.8687 13.8404V34.1417C39.8687 34.3355 39.9413 34.524 39.7766 34.6173L22.2762 44.7699C22.1262 44.86 21.94 44.86 21.7757 44.7699L17.2872 42.0909C17.1519 42.0123 16.9911 41.9841 16.8613 42.0567C15.6125 42.7645 15.3822 42.8586 14.2108 43.2647C13.9226 43.3651 13.4975 43.5394 14.3736 44.0304L20.2478 47.5054C20.8103 47.8309 21.4494 48 22.0924 48C22.7442 48 23.3826 47.8309 23.9451 47.5054L41.3656 37.3504C42.5049 36.6866 43.0448 35.4592 43.0448 34.1417V13.8404C43.0448 12.5229 42.5049 11.2943 41.366 10.6357ZM27.5276 30.9248C22.8729 30.9248 21.8475 29.6406 21.5057 27.3259C21.466 27.0766 21.2545 26.7785 21.0008 26.7785H18.7258C18.4444 26.7785 18.2181 27.1199 18.2181 27.4002C18.2181 30.3639 19.8294 33.9548 27.528 33.9548C33.1009 33.9548 36.2961 31.7893 36.2961 27.9571C36.2961 24.1574 33.7289 23.1602 28.3243 22.4449C22.8614 21.7228 22.3064 21.358 22.3064 20.0782C22.3064 19.0231 22.7764 17.6159 26.8214 17.6159C30.4357 17.6159 31.7679 18.3916 32.3161 20.8277C32.363 21.0567 32.5722 21.2211 32.8084 21.2211H35.0925C35.233 21.2211 35.3672 21.1643 35.4656 21.0639C35.5609 20.9559 35.6113 20.8205 35.5986 20.6753C35.2449 16.4802 32.4579 14.5252 26.821 14.5252C21.807 14.5252 18.8159 16.6425 18.8159 20.1918C18.8159 24.0415 21.7919 25.1053 26.6051 25.5813C32.363 26.1458 32.8108 26.9873 32.8108 28.1198C32.8108 30.0868 31.2316 30.9248 27.5276 30.9248Z" fill="#B2AE9C"/>
</svg>
